<svg xmlns="http://www.w3.org/2000/svg" width="24" height="24" viewBox="0 0 24 24" fill="none">
<path d="M12 24C18.6274 24 24 18.6274 24 12C24 5.37258 18.6274 0 12 0C5.37258 0 0 5.37258 0 12C0 18.6274 5.37258 24 12 24Z" fill="#8FBFFA"/>
<path fill-rule="evenodd" clip-rule="evenodd" d="M9.27412 7.45431C8.77202 6.95222 7.95794 6.95222 7.45584 7.45431C6.95374 7.95641 6.95374 8.77049 7.45584 9.27259L10.1833 12L7.45584 14.7274C6.95374 15.2295 6.95374 16.0436 7.45584 16.5457C7.95794 17.0478 8.77202 17.0478 9.27412 16.5457L12.0015 13.8183L14.7289 16.5457C15.231 17.0478 16.0451 17.0478 16.5472 16.5457C17.0493 16.0436 17.0493 15.2295 16.5472 14.7274L13.8198 12L16.5472 9.27259C17.0493 8.7705 17.0493 7.95641 16.5472 7.45431C16.0451 6.95222 15.231 6.95223 14.7289 7.45431L12.0015 10.1817L9.27412 7.45431Z" fill="#2859C5"/>
</svg>